<svg xmlns="http://www.w3.org/2000/svg"  viewBox="0 0 24 24" width="24px" height="24px"><path d="M 5 2 C 3.9069372 2 3 2.9069372 3 4 L 3 17.896484 C 3 18.670574 3.4506653 19.381428 4.1542969 19.708984 L 10.308594 22.582031 C 11.380027 23.081767 12.619973 23.081767 13.691406 22.582031 L 19.845703 19.708984 C 20.549173 19.381231 21 18.671082 21 17.896484 L 21 4 C 21 2.9069372 20.093063 2 19 2 L 5 2 z M 5 4 L 19 4 L 19 17.896484 L 12.845703 20.769531 C 12.309137 21.019795 11.690863 21.019795 11.154297 20.769531 L 5 17.896484 L 5 4 z M 15.962891 6 C 15.035891 6 14.576172 6.4457031 14.576172 7.3457031 L 14.576172 11.652344 C 14.576172 12.552344 15.036891 12.996094 15.962891 12.996094 L 16.523438 12.996094 C 17.439438 12.997094 17.890625 12.564453 17.890625 11.689453 L 17.890625 10.417969 L 16.785156 10.417969 L 16.785156 11.457031 C 16.785156 11.752031 16.643656 11.890625 16.347656 11.890625 L 16.130859 11.890625 C 15.823859 11.890625 15.681641 11.753031 15.681641 11.457031 L 15.681641 9.3144531 L 15.681641 7.9042969 L 15.681641 7.4726562 C 15.681641 7.2686563 15.847781 7.1054688 16.050781 7.1054688 L 16.417969 7.1054688 C 16.621969 7.1054688 16.785156 7.2696562 16.785156 7.4726562 L 16.785156 7.8417969 L 16.785156 8.5761719 L 17.890625 8.5761719 L 17.890625 7.3339844 C 17.890625 6.4339844 17.443625 6 16.515625 6 L 15.962891 6 z M 6.109375 6.0019531 L 6.109375 12.996094 L 8.3183594 12.996094 L 8.3183594 11.892578 L 7.2128906 11.892578 L 7.2128906 10.050781 L 8.3183594 10.050781 L 8.3183594 8.9453125 L 7.2128906 8.9453125 L 7.2128906 7.1054688 L 8.3183594 7.1054688 L 8.3183594 6.0019531 L 6.109375 6.0019531 z M 9.0546875 6.0019531 L 9.0546875 12.996094 L 10.160156 12.996094 L 10.158203 10.787109 L 10.746094 10.787109 C 11.585094 10.787109 12 10.368531 12 9.5195312 L 12 7.3476562 C 12 6.4466563 11.556156 6.0019531 10.660156 6.0019531 L 10.289062 6.0019531 L 9.0546875 6.0019531 z M 12.736328 6.0019531 L 12.736328 12.996094 L 13.841797 12.996094 L 13.841797 6.0019531 L 12.736328 6.0019531 z M 10.158203 7.1054688 L 10.527344 7.1054688 C 10.731344 7.1054688 10.894531 7.2696562 10.894531 7.4726562 L 10.894531 9.3144531 C 10.894531 9.5184531 10.730344 9.6816406 10.527344 9.6816406 L 10.158203 9.6816406 L 10.158203 7.1054688 z M 7.2578125 14.785156 L 7.2265625 14.787109 L 7.1953125 14.791016 L 7.1660156 14.794922 L 7.1347656 14.796875 L 7.1054688 14.802734 L 7.0742188 14.806641 L 7.0449219 14.8125 L 7.0175781 14.822266 L 6.9863281 14.828125 L 6.9589844 14.837891 L 6.9316406 14.84375 L 6.9042969 14.855469 L 6.8730469 14.863281 L 6.8496094 14.873047 L 6.8183594 14.888672 L 6.7929688 14.900391 L 6.7636719 14.912109 L 6.7363281 14.929688 L 6.7089844 14.943359 L 6.6816406 14.958984 L 6.6582031 14.974609 L 6.6328125 14.988281 L 6.609375 15.007812 L 6.5839844 15.023438 L 6.5605469 15.041016 L 6.5390625 15.060547 L 6.515625 15.080078 L 6.4941406 15.099609 L 6.4726562 15.121094 L 6.4511719 15.142578 L 6.4316406 15.162109 L 6.4121094 15.185547 L 6.3925781 15.207031 L 6.375 15.230469 L 6.3554688 15.255859 L 6.3378906 15.279297 L 6.3222656 15.304688 L 6.3066406 15.328125 L 6.2929688 15.353516 L 6.2773438 15.378906 L 6.2617188 15.404297 L 6.25 15.433594 L 6.2382812 15.460938 L 6.2246094 15.488281 L 6.2148438 15.515625 L 6.2011719 15.546875 L 6.1914062 15.572266 L 6.1835938 15.603516 L 6.1738281 15.632812 L 6.1679688 15.662109 L 6.1582031 15.691406 L 6.1523438 15.720703 L 6.1484375 15.75 L 6.1425781 15.779297 L 6.140625 15.814453 L 6.1386719 15.845703 L 6.1386719 15.875 L 6.1347656 15.908203 L 6.1347656 15.939453 L 6.1347656 15.945312 L 6.1347656 15.976562 L 6.1347656 16.009766 L 6.1386719 16.041016 L 6.140625 16.070312 L 6.1425781 16.101562 L 6.1464844 16.128906 L 6.1523438 16.158203 L 6.15625 16.1875 L 6.1621094 16.21875 L 6.171875 16.244141 L 6.1777344 16.275391 L 6.1855469 16.302734 L 6.1914062 16.330078 L 6.203125 16.357422 L 6.2148438 16.382812 L 6.2246094 16.410156 L 6.2382812 16.4375 L 6.25 16.464844 L 6.2617188 16.492188 L 6.2773438 16.517578 L 6.2929688 16.544922 L 6.3066406 16.568359 L 6.3222656 16.59375 L 6.3417969 16.617188 L 6.3554688 16.642578 L 6.375 16.664062 L 6.3925781 16.6875 L 6.4121094 16.708984 L 6.4316406 16.730469 L 6.453125 16.753906 L 6.4746094 16.769531 L 6.4960938 16.792969 L 6.5175781 16.810547 L 6.5390625 16.828125 L 6.5644531 16.847656 L 6.5878906 16.865234 L 6.6113281 16.884766 L 6.6367188 16.898438 L 6.6601562 16.914062 L 6.6875 16.929688 L 6.7128906 16.945312 L 6.7402344 16.960938 L 6.7675781 16.972656 L 6.7949219 16.984375 L 6.8222656 16.996094 L 6.8515625 17.009766 L 6.8808594 17.017578 L 6.90625 17.029297 L 6.9355469 17.039062 L 6.9648438 17.044922 L 6.9921875 17.054688 L 7.0234375 17.060547 L 7.0507812 17.066406 L 7.0800781 17.072266 L 7.1113281 17.078125 L 7.1425781 17.082031 L 7.171875 17.085938 L 7.2011719 17.087891 L 7.2363281 17.091797 L 7.265625 17.09375 L 7.296875 17.09375 L 7.3300781 17.09375 L 7.3632812 17.09375 L 7.3964844 17.09375 L 7.4296875 17.091797 L 7.4609375 17.087891 L 7.4941406 17.085938 L 7.5234375 17.082031 L 7.5585938 17.078125 L 7.5898438 17.076172 L 7.6191406 17.070312 L 7.6484375 17.064453 L 7.6757812 17.058594 L 7.7070312 17.052734 L 7.734375 17.042969 L 7.765625 17.033203 L 7.7929688 17.023438 L 7.8203125 17.015625 L 7.8476562 17.005859 L 7.8730469 16.992188 L 7.9042969 16.982422 L 7.9316406 16.96875 L 7.9628906 16.957031 L 7.9902344 16.941406 L 8.0175781 16.929688 L 8.0449219 16.914062 L 8.0722656 16.898438 L 8.0996094 16.884766 L 8.1230469 16.867188 L 8.1484375 16.853516 L 8.1738281 16.835938 L 8.1972656 16.818359 L 8.2207031 16.800781 L 8.2421875 16.785156 L 8.2675781 16.767578 L 8.2871094 16.748047 L 8.2871094 16.71875 L 8.2871094 16.6875 L 8.2871094 16.658203 L 8.2871094 16.630859 L 8.2871094 16.599609 L 8.2871094 16.568359 L 8.2871094 16.537109 L 8.2871094 16.507812 L 8.2871094 16.476562 L 8.2871094 16.449219 L 8.2871094 16.419922 L 8.2871094 16.388672 L 8.2871094 16.357422 L 8.2871094 16.328125 L 8.2871094 16.296875 L 8.2871094 16.267578 L 8.2871094 16.238281 L 8.2871094 16.207031 L 8.2871094 16.177734 L 8.2871094 16.148438 L 8.2871094 16.117188 L 8.2871094 16.085938 L 8.2871094 16.056641 L 8.2871094 16.027344 L 8.2871094 15.998047 L 8.2871094 15.966797 L 8.2871094 15.9375 L 8.2871094 15.90625 L 8.2871094 15.875 L 8.2871094 15.847656 L 8.2871094 15.816406 L 8.2871094 15.787109 L 8.2871094 15.755859 L 8.2578125 15.755859 L 8.2265625 15.755859 L 8.1972656 15.755859 L 8.1679688 15.755859 L 8.1367188 15.755859 L 8.1054688 15.755859 L 8.0742188 15.755859 L 8.0449219 15.755859 L 8.015625 15.755859 L 7.984375 15.755859 L 7.953125 15.755859 L 7.9238281 15.755859 L 7.8925781 15.755859 L 7.8632812 15.755859 L 7.8320312 15.755859 L 7.8007812 15.755859 L 7.7714844 15.755859 L 7.7402344 15.755859 L 7.7109375 15.755859 L 7.6796875 15.755859 L 7.6484375 15.755859 L 7.6191406 15.755859 L 7.5898438 15.755859 L 7.5585938 15.755859 L 7.5273438 15.755859 L 7.4960938 15.755859 L 7.4667969 15.755859 L 7.4355469 15.755859 L 7.40625 15.755859 L 7.375 15.755859 L 7.3457031 15.755859 L 7.3144531 15.755859 L 7.2832031 15.755859 L 7.2832031 15.787109 L 7.2832031 15.814453 L 7.2832031 15.845703 L 7.2832031 15.875 L 7.2832031 15.90625 L 7.2832031 15.933594 L 7.2832031 15.964844 L 7.2832031 15.994141 L 7.2832031 16.025391 L 7.2832031 16.052734 L 7.2832031 16.082031 L 7.2832031 16.113281 L 7.2832031 16.144531 L 7.2832031 16.171875 L 7.2832031 16.203125 L 7.3144531 16.203125 L 7.3417969 16.203125 L 7.3730469 16.203125 L 7.4023438 16.203125 L 7.4335938 16.203125 L 7.4609375 16.203125 L 7.4902344 16.203125 L 7.5214844 16.203125 L 7.5527344 16.203125 L 7.5800781 16.203125 L 7.609375 16.203125 L 7.640625 16.203125 L 7.671875 16.203125 L 7.6972656 16.203125 L 7.7285156 16.203125 L 7.7285156 16.232422 L 7.7285156 16.263672 L 7.7285156 16.294922 L 7.7285156 16.324219 L 7.7285156 16.357422 L 7.7285156 16.388672 L 7.7285156 16.419922 L 7.7285156 16.449219 L 7.7285156 16.480469 L 7.703125 16.496094 L 7.6835938 16.507812 L 7.65625 16.521484 L 7.6308594 16.53125 L 7.6035156 16.544922 L 7.5761719 16.550781 L 7.546875 16.560547 L 7.515625 16.566406 L 7.484375 16.572266 L 7.4550781 16.574219 L 7.421875 16.578125 L 7.3886719 16.580078 L 7.3515625 16.580078 L 7.3183594 16.580078 L 7.2832031 16.578125 L 7.2539062 16.574219 L 7.2246094 16.568359 L 7.1933594 16.5625 L 7.1621094 16.554688 L 7.1328125 16.544922 L 7.1054688 16.53125 L 7.078125 16.521484 L 7.0507812 16.507812 L 7.0253906 16.492188 L 7.0019531 16.476562 L 6.9765625 16.458984 L 6.953125 16.441406 L 6.9316406 16.421875 L 6.9121094 16.400391 L 6.8925781 16.380859 L 6.8730469 16.357422 L 6.8554688 16.333984 L 6.8398438 16.308594 L 6.8242188 16.285156 L 6.8105469 16.257812 L 6.7988281 16.230469 L 6.7851562 16.199219 L 6.7773438 16.175781 L 6.7675781 16.148438 L 6.7617188 16.119141 L 6.7558594 16.091797 L 6.7480469 16.064453 L 6.7460938 16.033203 L 6.7421875 16.007812 L 6.7402344 15.976562 L 6.7402344 15.945312 L 6.7402344 15.939453 L 6.7402344 15.90625 L 6.7421875 15.875 L 6.7460938 15.845703 L 6.7519531 15.810547 L 6.7578125 15.783203 L 6.7636719 15.753906 L 6.7734375 15.722656 L 6.7851562 15.695312 L 6.7949219 15.667969 L 6.8066406 15.640625 L 6.8222656 15.615234 L 6.8378906 15.587891 L 6.8515625 15.564453 L 6.8671875 15.542969 L 6.8867188 15.517578 L 6.90625 15.496094 L 6.9257812 15.474609 L 6.9472656 15.457031 L 6.96875 15.439453 L 6.9882812 15.419922 L 7.0136719 15.404297 L 7.0371094 15.390625 L 7.0625 15.373047 L 7.0898438 15.361328 L 7.1171875 15.349609 L 7.1445312 15.341797 L 7.171875 15.332031 L 7.1992188 15.326172 L 7.2304688 15.318359 L 7.2578125 15.316406 L 7.2871094 15.3125 L 7.3183594 15.3125 L 7.3515625 15.3125 L 7.3847656 15.316406 L 7.4179688 15.318359 L 7.4492188 15.322266 L 7.4785156 15.328125 L 7.5097656 15.335938 L 7.5371094 15.341797 L 7.5644531 15.349609 L 7.5917969 15.359375 L 7.6152344 15.367188 L 7.640625 15.380859 L 7.6640625 15.392578 L 7.6914062 15.408203 L 7.7167969 15.423828 L 7.7402344 15.439453 L 7.765625 15.453125 L 7.7890625 15.472656 L 7.8144531 15.488281 L 7.8378906 15.509766 L 7.8632812 15.527344 L 7.8808594 15.503906 L 7.9023438 15.480469 L 7.9199219 15.457031 L 7.9414062 15.433594 L 7.9589844 15.408203 L 7.9785156 15.386719 L 7.9980469 15.361328 L 8.0175781 15.337891 L 8.0390625 15.3125 L 8.0566406 15.292969 L 8.0742188 15.267578 L 8.0976562 15.242188 L 8.1152344 15.222656 L 8.1328125 15.197266 L 8.1542969 15.173828 L 8.1738281 15.148438 L 8.1933594 15.126953 L 8.2128906 15.103516 L 8.1875 15.083984 L 8.1640625 15.0625 L 8.1386719 15.044922 L 8.1152344 15.025391 L 8.0917969 15.011719 L 8.0664062 14.992188 L 8.0390625 14.976562 L 8.015625 14.962891 L 7.9882812 14.947266 L 7.9628906 14.931641 L 7.9355469 14.919922 L 7.9082031 14.904297 L 7.8808594 14.890625 L 7.8535156 14.878906 L 7.8261719 14.867188 L 7.7988281 14.857422 L 7.7734375 14.849609 L 7.7460938 14.84375 L 7.71875 14.833984 L 7.6914062 14.828125 L 7.6640625 14.822266 L 7.6367188 14.814453 L 7.6074219 14.808594 L 7.5761719 14.802734 L 7.5488281 14.800781 L 7.515625 14.794922 L 7.484375 14.791016 L 7.4550781 14.791016 L 7.421875 14.787109 L 7.3886719 14.785156 L 7.3535156 14.785156 L 7.3203125 14.785156 L 7.2910156 14.785156 L 7.2578125 14.785156 z M 16.845703 14.791016 L 16.816406 14.794922 L 16.785156 14.796875 L 16.755859 14.800781 L 16.724609 14.802734 L 16.697266 14.808594 L 16.667969 14.814453 L 16.638672 14.822266 L 16.611328 14.828125 L 16.587891 14.833984 L 16.560547 14.84375 L 16.529297 14.855469 L 16.5 14.863281 L 16.472656 14.876953 L 16.445312 14.890625 L 16.417969 14.904297 L 16.390625 14.919922 L 16.365234 14.933594 L 16.341797 14.953125 L 16.316406 14.970703 L 16.296875 14.986328 L 16.271484 15.007812 L 16.25 15.03125 L 16.228516 15.054688 L 16.207031 15.078125 L 16.189453 15.103516 L 16.171875 15.126953 L 16.15625 15.154297 L 16.140625 15.181641 L 16.128906 15.208984 L 16.115234 15.236328 L 16.103516 15.263672 L 16.097656 15.292969 L 16.089844 15.318359 L 16.082031 15.347656 L 16.076172 15.373047 L 16.074219 15.404297 L 16.070312 15.433594 L 16.068359 15.462891 L 16.068359 15.494141 L 16.068359 15.5 L 16.068359 15.533203 L 16.070312 15.566406 L 16.074219 15.597656 L 16.076172 15.628906 L 16.082031 15.65625 L 16.089844 15.685547 L 16.097656 15.710938 L 16.107422 15.738281 L 16.115234 15.763672 L 16.128906 15.783203 L 16.144531 15.810547 L 16.158203 15.835938 L 16.173828 15.857422 L 16.191406 15.878906 L 16.210938 15.900391 L 16.232422 15.921875 L 16.253906 15.943359 L 16.273438 15.960938 L 16.298828 15.976562 L 16.322266 15.994141 L 16.351562 16.009766 L 16.375 16.025391 L 16.404297 16.041016 L 16.433594 16.056641 L 16.462891 16.068359 L 16.492188 16.080078 L 16.523438 16.091797 L 16.556641 16.105469 L 16.585938 16.113281 L 16.611328 16.123047 L 16.638672 16.132812 L 16.669922 16.138672 L 16.697266 16.148438 L 16.728516 16.15625 L 16.757812 16.162109 L 16.789062 16.171875 L 16.818359 16.177734 L 16.851562 16.1875 L 16.882812 16.193359 L 16.916016 16.203125 L 16.947266 16.207031 L 16.976562 16.21875 L 17.003906 16.224609 L 17.03125 16.232422 L 17.056641 16.238281 L 17.076172 16.244141 L 17.113281 16.259766 L 17.144531 16.273438 L 17.171875 16.285156 L 17.195312 16.296875 L 17.220703 16.314453 L 17.242188 16.333984 L 17.257812 16.355469 L 17.269531 16.384766 L 17.271484 16.421875 L 17.271484 16.429688 L 17.269531 16.458984 L 17.259766 16.486328 L 17.248047 16.511719 L 17.230469 16.53125 L 17.205078 16.550781 L 17.183594 16.5625 L 17.160156 16.572266 L 17.132812 16.578125 L 17.105469 16.583984 L 17.074219 16.589844 L 17.041016 16.59375 L 17.003906 16.59375 L 16.974609 16.59375 L 16.941406 16.589844 L 16.910156 16.589844 L 16.880859 16.583984 L 16.845703 16.580078 L 16.816406 16.574219 L 16.785156 16.568359 L 16.755859 16.5625 L 16.728516 16.554688 L 16.697266 16.544922 L 16.667969 16.535156 L 16.638672 16.523438 L 16.611328 16.513672 L 16.585938 16.501953 L 16.556641 16.490234 L 16.529297 16.476562 L 16.505859 16.462891 L 16.478516 16.449219 L 16.453125 16.435547 L 16.427734 16.416016 L 16.402344 16.400391 L 16.375 16.382812 L 16.351562 16.363281 L 16.322266 16.345703 L 16.298828 16.328125 L 16.279297 16.351562 L 16.259766 16.373047 L 16.240234 16.398438 L 16.220703 16.421875 L 16.201172 16.443359 L 16.183594 16.46875 L 16.162109 16.492188 L 16.144531 16.513672 L 16.121094 16.537109 L 16.103516 16.560547 L 16.082031 16.583984 L 16.064453 16.609375 L 16.046875 16.630859 L 16.025391 16.654297 L 16.007812 16.679688 L 15.984375 16.701172 L 15.966797 16.724609 L 15.992188 16.746094 L 16.011719 16.763672 L 16.037109 16.783203 L 16.060547 16.800781 L 16.085938 16.818359 L 16.109375 16.837891 L 16.134766 16.853516 L 16.158203 16.867188 L 16.185547 16.884766 L 16.210938 16.898438 L 16.238281 16.914062 L 16.265625 16.927734 L 16.292969 16.941406 L 16.320312 16.953125 L 16.347656 16.966797 L 16.378906 16.978516 L 16.404297 16.986328 L 16.435547 16.996094 L 16.462891 17.009766 L 16.492188 17.017578 L 16.523438 17.027344 L 16.550781 17.033203 L 16.582031 17.042969 L 16.611328 17.048828 L 16.642578 17.054688 L 16.673828 17.060547 L 16.703125 17.066406 L 16.734375 17.070312 L 16.763672 17.076172 L 16.796875 17.078125 L 16.828125 17.082031 L 16.857422 17.085938 L 16.892578 17.085938 L 16.921875 17.087891 L 16.951172 17.087891 L 16.986328 17.087891 L 17.019531 17.087891 L 17.050781 17.087891 L 17.080078 17.085938 L 17.113281 17.082031 L 17.144531 17.078125 L 17.171875 17.076172 L 17.201172 17.072266 L 17.232422 17.066406 L 17.259766 17.060547 L 17.287109 17.054688 L 17.318359 17.048828 L 17.345703 17.039062 L 17.376953 17.029297 L 17.40625 17.021484 L 17.435547 17.009766 L 17.466797 16.996094 L 17.494141 16.982422 L 17.521484 16.96875 L 17.548828 16.953125 L 17.572266 16.935547 L 17.597656 16.919922 L 17.621094 16.902344 L 17.642578 16.884766 L 17.667969 16.861328 L 17.685547 16.84375 L 17.707031 16.822266 L 17.724609 16.800781 L 17.740234 16.777344 L 17.759766 16.753906 L 17.773438 16.728516 L 17.789062 16.703125 L 17.802734 16.675781 L 17.8125 16.652344 L 17.826172 16.623047 L 17.835938 16.59375 L 17.841797 16.566406 L 17.849609 16.535156 L 17.855469 16.505859 L 17.859375 16.470703 L 17.861328 16.441406 L 17.865234 16.40625 L 17.865234 16.373047 L 17.865234 16.367188 L 17.865234 16.333984 L 17.861328 16.300781 L 17.859375 16.269531 L 17.853516 16.238281 L 17.847656 16.207031 L 17.841797 16.181641 L 17.832031 16.152344 L 17.822266 16.126953 L 17.810547 16.101562 L 17.796875 16.074219 L 17.779297 16.050781 L 17.761719 16.021484 L 17.744141 15.998047 L 17.722656 15.976562 L 17.701172 15.951172 L 17.677734 15.929688 L 17.652344 15.908203 L 17.628906 15.894531 L 17.603516 15.875 L 17.580078 15.859375 L 17.552734 15.845703 L 17.525391 15.828125 L 17.494141 15.814453 L 17.464844 15.802734 L 17.433594 15.787109 L 17.400391 15.775391 L 17.373047 15.765625 L 17.345703 15.755859 L 17.314453 15.746094 L 17.287109 15.738281 L 17.257812 15.728516 L 17.226562 15.720703 L 17.195312 15.714844 L 17.162109 15.703125 L 17.132812 15.695312 L 17.099609 15.689453 L 17.064453 15.679688 L 17.03125 15.671875 L 16.998047 15.662109 L 16.96875 15.65625 L 16.941406 15.646484 L 16.912109 15.640625 L 16.888672 15.632812 L 16.865234 15.625 L 16.828125 15.613281 L 16.794922 15.601562 L 16.763672 15.587891 L 16.740234 15.572266 L 16.712891 15.558594 L 16.691406 15.535156 L 16.679688 15.517578 L 16.664062 15.484375 L 16.660156 15.445312 L 16.660156 15.439453 L 16.664062 15.408203 L 16.675781 15.380859 L 16.693359 15.353516 L 16.720703 15.328125 L 16.742188 15.316406 L 16.767578 15.304688 L 16.794922 15.298828 L 16.824219 15.292969 L 16.857422 15.285156 L 16.894531 15.285156 L 16.925781 15.285156 L 16.951172 15.289062 L 16.982422 15.292969 L 17.013672 15.294922 L 17.044922 15.300781 L 17.074219 15.308594 L 17.105469 15.3125 L 17.134766 15.322266 L 17.166016 15.332031 L 17.199219 15.341797 L 17.222656 15.353516 L 17.251953 15.361328 L 17.275391 15.373047 L 17.302734 15.386719 L 17.326172 15.398438 L 17.353516 15.410156 L 17.378906 15.427734 L 17.40625 15.439453 L 17.429688 15.457031 L 17.455078 15.472656 L 17.482422 15.488281 L 17.505859 15.505859 L 17.525391 15.480469 L 17.539062 15.457031 L 17.558594 15.433594 L 17.576172 15.408203 L 17.595703 15.380859 L 17.609375 15.355469 L 17.628906 15.332031 L 17.646484 15.308594 L 17.662109 15.283203 L 17.679688 15.257812 L 17.697266 15.234375 L 17.712891 15.208984 L 17.730469 15.181641 L 17.75 15.15625 L 17.767578 15.132812 L 17.783203 15.109375 L 17.802734 15.083984 L 17.777344 15.066406 L 17.753906 15.048828 L 17.728516 15.029297 L 17.703125 15.013672 L 17.677734 14.996094 L 17.652344 14.980469 L 17.625 14.964844 L 17.597656 14.949219 L 17.572266 14.9375 L 17.546875 14.921875 L 17.515625 14.910156 L 17.488281 14.898438 L 17.460938 14.884766 L 17.433594 14.876953 L 17.402344 14.863281 L 17.376953 14.857422 L 17.347656 14.849609 L 17.318359 14.839844 L 17.289062 14.833984 L 17.259766 14.828125 L 17.230469 14.822266 L 17.201172 14.814453 L 17.171875 14.808594 L 17.138672 14.806641 L 17.107422 14.800781 L 17.074219 14.796875 L 17.044922 14.796875 L 17.011719 14.794922 L 16.976562 14.791016 L 16.943359 14.791016 L 16.910156 14.791016 L 16.876953 14.791016 L 16.845703 14.791016 z M 9.4570312 14.810547 L 9.4453125 14.839844 L 9.4335938 14.867188 L 9.4199219 14.900391 L 9.4101562 14.931641 L 9.3984375 14.958984 L 9.3867188 14.986328 L 9.375 15.015625 L 9.3632812 15.042969 L 9.3496094 15.068359 L 9.3378906 15.099609 L 9.3261719 15.126953 L 9.3164062 15.154297 L 9.3046875 15.183594 L 9.2929688 15.210938 L 9.2792969 15.236328 L 9.2675781 15.267578 L 9.2558594 15.296875 L 9.2441406 15.324219 L 9.2304688 15.349609 L 9.2226562 15.378906 L 9.2109375 15.404297 L 9.1972656 15.435547 L 9.1855469 15.464844 L 9.1738281 15.492188 L 9.1621094 15.519531 L 9.1503906 15.548828 L 9.1386719 15.576172 L 9.1289062 15.607422 L 9.1171875 15.634766 L 9.1054688 15.662109 L 9.0898438 15.6875 L 9.078125 15.714844 L 9.0664062 15.742188 L 9.0546875 15.773438 L 9.0410156 15.800781 L 9.03125 15.828125 L 9.0195312 15.855469 L 9.0078125 15.882812 L 8.9941406 15.910156 L 8.9824219 15.9375 L 8.9707031 15.96875 L 8.9589844 15.996094 L 8.9472656 16.025391 L 8.9375 16.052734 L 8.9257812 16.080078 L 8.9140625 16.109375 L 8.9023438 16.140625 L 8.890625 16.167969 L 8.8789062 16.195312 L 8.8652344 16.224609 L 8.8535156 16.251953 L 8.8457031 16.279297 L 8.8300781 16.304688 L 8.8183594 16.332031 L 8.8066406 16.359375 L 8.7949219 16.388672 L 8.78125 16.416016 L 8.7695312 16.443359 L 8.7578125 16.474609 L 8.7441406 16.5 L 8.7324219 16.527344 L 8.7207031 16.556641 L 8.7070312 16.583984 L 8.6953125 16.609375 L 8.6835938 16.640625 L 8.6796875 16.660156 L 8.6660156 16.6875 L 8.65625 16.716797 L 8.6445312 16.744141 L 8.6328125 16.769531 L 8.6191406 16.800781 L 8.6074219 16.828125 L 8.5957031 16.857422 L 8.5839844 16.884766 L 8.5722656 16.912109 L 8.5625 16.941406 L 8.5507812 16.96875 L 8.5371094 16.996094 L 8.5253906 17.025391 L 8.5136719 17.052734 L 8.5449219 17.052734 L 8.5742188 17.052734 L 8.6054688 17.052734 L 8.6367188 17.052734 L 8.6699219 17.052734 L 8.6992188 17.052734 L 8.7304688 17.052734 L 8.7617188 17.052734 L 8.7929688 17.052734 L 8.8222656 17.052734 L 8.8515625 17.052734 L 8.8808594 17.052734 L 8.9101562 17.052734 L 8.9414062 17.052734 L 8.9746094 17.052734 L 9.0058594 17.052734 L 9.0351562 17.052734 L 9.0664062 17.052734 L 9.0957031 17.052734 L 9.1269531 17.052734 L 9.1386719 17.025391 L 9.1464844 16.996094 L 9.1582031 16.96875 L 9.171875 16.9375 L 9.1796875 16.910156 L 9.1914062 16.882812 L 9.203125 16.853516 L 9.2128906 16.826172 L 9.2246094 16.798828 L 9.2363281 16.769531 L 9.2460938 16.742188 L 9.2578125 16.710938 L 9.2695312 16.683594 L 9.2792969 16.654297 L 9.2910156 16.626953 L 9.3203125 16.626953 L 9.3515625 16.626953 L 9.3828125 16.626953 L 9.4121094 16.626953 L 9.4414062 16.626953 L 9.4707031 16.626953 L 9.5019531 16.626953 L 9.53125 16.626953 L 9.5625 16.626953 L 9.59375 16.626953 L 9.6230469 16.626953 L 9.6523438 16.626953 L 9.6835938 16.626953 L 9.7148438 16.626953 L 9.7421875 16.626953 L 9.7734375 16.626953 L 9.8046875 16.626953 L 9.8339844 16.626953 L 9.8652344 16.626953 L 9.8964844 16.626953 L 9.9277344 16.626953 L 9.9570312 16.626953 L 9.9882812 16.626953 L 10.019531 16.626953 L 10.046875 16.626953 L 10.076172 16.626953 L 10.107422 16.626953 L 10.136719 16.626953 L 10.167969 16.626953 L 10.179688 16.654297 L 10.1875 16.683594 L 10.199219 16.710938 L 10.212891 16.742188 L 10.220703 16.769531 L 10.232422 16.798828 L 10.244141 16.826172 L 10.253906 16.853516 L 10.265625 16.882812 L 10.277344 16.910156 L 10.287109 16.9375 L 10.298828 16.96875 L 10.310547 16.996094 L 10.320312 17.025391 L 10.332031 17.052734 L 10.363281 17.052734 L 10.392578 17.052734 L 10.421875 17.052734 L 10.451172 17.052734 L 10.482422 17.052734 L 10.513672 17.052734 L 10.542969 17.052734 L 10.570312 17.052734 L 10.599609 17.052734 L 10.630859 17.052734 L 10.660156 17.052734 L 10.691406 17.052734 L 10.722656 17.052734 L 10.75 17.052734 L 10.78125 17.052734 L 10.810547 17.052734 L 10.841797 17.052734 L 10.871094 17.052734 L 10.900391 17.052734 L 10.931641 17.052734 L 10.960938 17.052734 L 10.949219 17.025391 L 10.9375 16.996094 L 10.925781 16.96875 L 10.917969 16.9375 L 10.904297 16.910156 L 10.892578 16.882812 L 10.880859 16.853516 L 10.869141 16.826172 L 10.857422 16.798828 L 10.845703 16.767578 L 10.832031 16.738281 L 10.824219 16.710938 L 10.8125 16.683594 L 10.800781 16.654297 L 10.787109 16.626953 L 10.775391 16.595703 L 10.763672 16.566406 L 10.751953 16.539062 L 10.738281 16.511719 L 10.730469 16.482422 L 10.71875 16.455078 L 10.705078 16.423828 L 10.693359 16.396484 L 10.681641 16.367188 L 10.669922 16.339844 L 10.658203 16.3125 L 10.646484 16.283203 L 10.636719 16.253906 L 10.625 16.224609 L 10.613281 16.197266 L 10.601562 16.169922 L 10.589844 16.140625 L 10.576172 16.113281 L 10.564453 16.082031 L 10.552734 16.054688 L 10.544922 16.025391 L 10.53125 15.998047 L 10.519531 15.970703 L 10.5 15.957031 L 10.488281 15.927734 L 10.480469 15.904297 L 10.46875 15.876953 L 10.455078 15.849609 L 10.447266 15.820312 L 10.435547 15.792969 L 10.423828 15.765625 L 10.410156 15.734375 L 10.398438 15.705078 L 10.386719 15.677734 L 10.375 15.650391 L 10.363281 15.621094 L 10.353516 15.59375 L 10.341797 15.5625 L 10.330078 15.535156 L 10.318359 15.507812 L 10.306641 15.478516 L 10.294922 15.451172 L 10.28125 15.423828 L 10.265625 15.400391 L 10.257812 15.371094 L 10.244141 15.34375 L 10.232422 15.316406 L 10.220703 15.289062 L 10.207031 15.261719 L 10.195312 15.230469 L 10.183594 15.203125 L 10.171875 15.175781 L 10.162109 15.146484 L 10.150391 15.119141 L 10.138672 15.091797 L 10.126953 15.060547 L 10.115234 15.03125 L 10.103516 15.003906 L 10.091797 14.976562 L 10.078125 14.947266 L 10.074219 14.925781 L 10.0625 14.894531 L 10.050781 14.867188 L 10.037109 14.839844 L 10.025391 14.810547 L 9.9921875 14.810547 L 9.9648438 14.810547 L 9.9296875 14.810547 L 9.9003906 14.810547 L 9.8691406 14.810547 L 9.84375 14.810547 L 9.8125 14.810547 L 9.78125 14.810547 L 9.7519531 14.810547 L 9.7246094 14.810547 L 9.6933594 14.810547 L 9.6621094 14.810547 L 9.6328125 14.810547 L 9.6054688 14.810547 L 9.5742188 14.810547 L 9.5449219 14.810547 L 9.515625 14.810547 L 9.4863281 14.810547 L 9.4570312 14.810547 z M 11.208984 14.828125 L 11.208984 14.857422 L 11.208984 14.888672 L 11.208984 14.919922 L 11.208984 14.949219 L 11.208984 14.980469 L 11.208984 15.011719 L 11.208984 15.041016 L 11.208984 15.072266 L 11.208984 15.103516 L 11.208984 15.132812 L 11.208984 15.162109 L 11.208984 15.193359 L 11.208984 15.224609 L 11.208984 15.255859 L 11.208984 15.285156 L 11.208984 15.316406 L 11.208984 15.347656 L 11.208984 15.378906 L 11.208984 15.404297 L 11.208984 15.435547 L 11.208984 15.466797 L 11.208984 15.496094 L 11.208984 15.527344 L 11.208984 15.558594 L 11.208984 15.587891 L 11.208984 15.619141 L 11.208984 15.648438 L 11.208984 15.679688 L 11.208984 15.710938 L 11.208984 15.740234 L 11.208984 15.771484 L 11.208984 15.802734 L 11.208984 15.832031 L 11.208984 15.863281 L 11.208984 15.894531 L 11.208984 15.923828 L 11.208984 15.955078 L 11.208984 15.986328 L 11.208984 16.015625 L 11.208984 16.046875 L 11.208984 16.076172 L 11.208984 16.107422 L 11.208984 16.138672 L 11.208984 16.169922 L 11.208984 16.199219 L 11.208984 16.230469 L 11.208984 16.259766 L 11.208984 16.291016 L 11.208984 16.322266 L 11.208984 16.351562 L 11.208984 16.382812 L 11.208984 16.412109 L 11.208984 16.443359 L 11.208984 16.474609 L 11.208984 16.501953 L 11.208984 16.53125 L 11.208984 16.5625 L 11.208984 16.59375 L 11.208984 16.623047 L 11.208984 16.654297 L 11.208984 16.685547 L 11.208984 16.716797 L 11.208984 16.746094 L 11.208984 16.777344 L 11.208984 16.808594 L 11.208984 16.837891 L 11.208984 16.867188 L 11.208984 16.898438 L 11.208984 16.929688 L 11.208984 16.960938 L 11.208984 16.990234 L 11.208984 17.021484 L 11.208984 17.052734 L 11.240234 17.052734 L 11.271484 17.052734 L 11.300781 17.052734 L 11.330078 17.052734 L 11.361328 17.052734 L 11.392578 17.052734 L 11.423828 17.052734 L 11.453125 17.052734 L 11.482422 17.052734 L 11.513672 17.052734 L 11.544922 17.052734 L 11.574219 17.052734 L 11.605469 17.052734 L 11.636719 17.052734 L 11.666016 17.052734 L 11.697266 17.052734 L 11.726562 17.052734 L 11.757812 17.052734 L 11.787109 17.052734 L 11.787109 17.021484 L 11.787109 16.990234 L 11.787109 16.960938 L 11.787109 16.929688 L 11.787109 16.898438 L 11.787109 16.867188 L 11.787109 16.837891 L 11.787109 16.806641 L 11.787109 16.777344 L 11.787109 16.746094 L 11.787109 16.71875 L 11.787109 16.6875 L 11.787109 16.65625 L 11.787109 16.626953 L 11.787109 16.595703 L 11.787109 16.564453 L 11.787109 16.535156 L 11.787109 16.503906 L 11.787109 16.474609 L 11.787109 16.443359 L 11.787109 16.412109 L 11.787109 16.382812 L 11.787109 16.351562 L 11.787109 16.320312 L 11.787109 16.289062 L 11.787109 16.259766 L 11.787109 16.228516 L 11.787109 16.197266 L 11.787109 16.167969 L 11.787109 16.136719 L 11.787109 16.105469 L 11.787109 16.076172 L 11.787109 16.048828 L 11.787109 16.017578 L 11.787109 15.986328 L 11.787109 15.955078 L 11.787109 15.925781 L 11.787109 15.894531 L 11.787109 15.865234 L 11.787109 15.833984 L 11.787109 15.804688 L 11.787109 15.773438 L 11.787109 15.742188 L 11.806641 15.767578 L 11.820312 15.794922 L 11.839844 15.818359 L 11.855469 15.847656 L 11.871094 15.871094 L 11.888672 15.898438 L 11.90625 15.923828 L 11.921875 15.951172 L 11.939453 15.974609 L 11.955078 16.003906 L 11.972656 16.027344 L 11.988281 16.054688 L 12.007812 16.078125 L 12.021484 16.107422 L 12.039062 16.130859 L 12.054688 16.158203 L 12.072266 16.183594 L 12.091797 16.210938 L 12.107422 16.234375 L 12.125 16.263672 L 12.140625 16.287109 L 12.158203 16.314453 L 12.173828 16.339844 L 12.191406 16.367188 L 12.207031 16.390625 L 12.226562 16.419922 L 12.240234 16.443359 L 12.259766 16.470703 L 12.273438 16.496094 L 12.292969 16.523438 L 12.308594 16.548828 L 12.326172 16.574219 L 12.341797 16.599609 L 12.359375 16.626953 L 12.371094 16.626953 L 12.386719 16.603516 L 12.404297 16.574219 L 12.419922 16.550781 L 12.439453 16.525391 L 12.453125 16.498047 L 12.472656 16.474609 L 12.486328 16.449219 L 12.501953 16.421875 L 12.521484 16.398438 L 12.535156 16.373047 L 12.554688 16.349609 L 12.570312 16.320312 L 12.587891 16.296875 L 12.603516 16.271484 L 12.617188 16.244141 L 12.636719 16.220703 L 12.652344 16.195312 L 12.669922 16.167969 L 12.685547 16.144531 L 12.703125 16.119141 L 12.71875 16.091797 L 12.734375 16.066406 L 12.751953 16.042969 L 12.767578 16.015625 L 12.785156 15.990234 L 12.800781 15.966797 L 12.818359 15.941406 L 12.833984 15.914062 L 12.849609 15.890625 L 12.867188 15.865234 L 12.882812 15.837891 L 12.900391 15.8125 L 12.916016 15.789062 L 12.933594 15.761719 L 12.949219 15.736328 L 12.949219 15.767578 L 12.949219 15.798828 L 12.949219 15.828125 L 12.949219 15.859375 L 12.949219 15.890625 L 12.949219 15.919922 L 12.949219 15.949219 L 12.949219 15.980469 L 12.949219 16.011719 L 12.949219 16.042969 L 12.949219 16.072266 L 12.949219 16.103516 L 12.949219 16.134766 L 12.949219 16.164062 L 12.949219 16.195312 L 12.949219 16.226562 L 12.949219 16.255859 L 12.949219 16.287109 L 12.949219 16.318359 L 12.949219 16.347656 L 12.949219 16.378906 L 12.949219 16.408203 L 12.949219 16.439453 L 12.949219 16.470703 L 12.949219 16.501953 L 12.949219 16.53125 L 12.949219 16.5625 L 12.949219 16.59375 L 12.949219 16.623047 L 12.949219 16.654297 L 12.949219 16.685547 L 12.949219 16.714844 L 12.949219 16.746094 L 12.949219 16.777344 L 12.949219 16.806641 L 12.949219 16.837891 L 12.949219 16.867188 L 12.949219 16.898438 L 12.949219 16.929688 L 12.949219 16.960938 L 12.949219 16.990234 L 12.949219 17.021484 L 12.949219 17.052734 L 12.980469 17.052734 L 13.009766 17.052734 L 13.041016 17.052734 L 13.074219 17.052734 L 13.105469 17.052734 L 13.134766 17.052734 L 13.164062 17.052734 L 13.195312 17.052734 L 13.226562 17.052734 L 13.259766 17.052734 L 13.289062 17.052734 L 13.320312 17.052734 L 13.351562 17.052734 L 13.382812 17.052734 L 13.412109 17.052734 L 13.445312 17.052734 L 13.476562 17.052734 L 13.505859 17.052734 L 13.537109 17.052734 L 13.537109 17.021484 L 13.537109 16.990234 L 13.537109 16.960938 L 13.537109 16.929688 L 13.537109 16.898438 L 13.537109 16.867188 L 13.537109 16.837891 L 13.537109 16.808594 L 13.537109 16.777344 L 13.537109 16.746094 L 13.537109 16.716797 L 13.537109 16.685547 L 13.537109 16.654297 L 13.537109 16.623047 L 13.537109 16.59375 L 13.537109 16.5625 L 13.537109 16.53125 L 13.537109 16.501953 L 13.537109 16.474609 L 13.537109 16.443359 L 13.537109 16.412109 L 13.537109 16.382812 L 13.537109 16.351562 L 13.537109 16.322266 L 13.537109 16.291016 L 13.537109 16.259766 L 13.537109 16.230469 L 13.537109 16.199219 L 13.537109 16.169922 L 13.537109 16.138672 L 13.537109 16.107422 L 13.537109 16.076172 L 13.537109 16.046875 L 13.537109 16.015625 L 13.537109 15.986328 L 13.537109 15.955078 L 13.537109 15.923828 L 13.537109 15.894531 L 13.537109 15.863281 L 13.537109 15.832031 L 13.537109 15.802734 L 13.537109 15.771484 L 13.537109 15.740234 L 13.537109 15.710938 L 13.537109 15.679688 L 13.537109 15.648438 L 13.537109 15.619141 L 13.537109 15.587891 L 13.537109 15.558594 L 13.537109 15.527344 L 13.537109 15.496094 L 13.537109 15.466797 L 13.537109 15.435547 L 13.537109 15.404297 L 13.537109 15.378906 L 13.537109 15.347656 L 13.537109 15.316406 L 13.537109 15.285156 L 13.537109 15.255859 L 13.537109 15.224609 L 13.537109 15.193359 L 13.537109 15.162109 L 13.537109 15.132812 L 13.537109 15.103516 L 13.537109 15.072266 L 13.537109 15.041016 L 13.537109 15.011719 L 13.537109 14.980469 L 13.537109 14.949219 L 13.537109 14.919922 L 13.537109 14.888672 L 13.537109 14.857422 L 13.537109 14.828125 L 13.505859 14.828125 L 13.476562 14.828125 L 13.449219 14.828125 L 13.417969 14.828125 L 13.388672 14.828125 L 13.357422 14.828125 L 13.330078 14.828125 L 13.298828 14.828125 L 13.269531 14.828125 L 13.238281 14.828125 L 13.210938 14.828125 L 13.181641 14.828125 L 13.150391 14.828125 L 13.119141 14.828125 L 13.091797 14.828125 L 13.0625 14.828125 L 13.03125 14.828125 L 13.001953 14.828125 L 12.974609 14.828125 L 12.943359 14.828125 L 12.912109 14.828125 L 12.898438 14.851562 L 12.882812 14.878906 L 12.865234 14.904297 L 12.849609 14.931641 L 12.833984 14.955078 L 12.818359 14.982422 L 12.800781 15.007812 L 12.785156 15.035156 L 12.769531 15.058594 L 12.755859 15.083984 L 12.736328 15.111328 L 12.722656 15.136719 L 12.705078 15.162109 L 12.691406 15.1875 L 12.673828 15.214844 L 12.65625 15.238281 L 12.642578 15.263672 L 12.626953 15.291016 L 12.611328 15.316406 L 12.59375 15.34375 L 12.578125 15.367188 L 12.5625 15.394531 L 12.548828 15.419922 L 12.529297 15.447266 L 12.515625 15.470703 L 12.498047 15.494141 L 12.484375 15.523438 L 12.466797 15.546875 L 12.451172 15.574219 L 12.435547 15.599609 L 12.419922 15.626953 L 12.402344 15.650391 L 12.386719 15.677734 L 12.371094 15.703125 L 12.357422 15.677734 L 12.341797 15.650391 L 12.322266 15.626953 L 12.308594 15.599609 L 12.292969 15.574219 L 12.277344 15.546875 L 12.261719 15.523438 L 12.244141 15.494141 L 12.228516 15.470703 L 12.212891 15.447266 L 12.197266 15.419922 L 12.183594 15.394531 L 12.164062 15.367188 L 12.148438 15.34375 L 12.134766 15.316406 L 12.119141 15.291016 L 12.103516 15.263672 L 12.085938 15.238281 L 12.070312 15.214844 L 12.054688 15.1875 L 12.039062 15.162109 L 12.021484 15.136719 L 12.007812 15.111328 L 11.990234 15.083984 L 11.976562 15.058594 L 11.960938 15.035156 L 11.943359 15.007812 L 11.927734 14.982422 L 11.912109 14.955078 L 11.896484 14.931641 L 11.882812 14.904297 L 11.863281 14.878906 L 11.847656 14.851562 L 11.832031 14.828125 L 11.802734 14.828125 L 11.773438 14.828125 L 11.744141 14.828125 L 11.714844 14.828125 L 11.683594 14.828125 L 11.654297 14.828125 L 11.626953 14.828125 L 11.595703 14.828125 L 11.564453 14.828125 L 11.535156 14.828125 L 11.507812 14.828125 L 11.476562 14.828125 L 11.447266 14.828125 L 11.417969 14.828125 L 11.388672 14.828125 L 11.359375 14.828125 L 11.328125 14.828125 L 11.298828 14.828125 L 11.271484 14.828125 L 11.240234 14.828125 L 11.208984 14.828125 z M 13.986328 14.828125 L 13.986328 14.857422 L 13.986328 14.888672 L 13.986328 14.919922 L 13.986328 14.949219 L 13.986328 14.980469 L 13.986328 15.011719 L 13.986328 15.041016 L 13.986328 15.072266 L 13.986328 15.103516 L 13.986328 15.132812 L 13.986328 15.162109 L 13.986328 15.193359 L 13.986328 15.224609 L 13.986328 15.255859 L 13.986328 15.285156 L 13.986328 15.316406 L 13.986328 15.347656 L 13.986328 15.378906 L 13.986328 15.404297 L 13.986328 15.435547 L 13.986328 15.466797 L 13.986328 15.496094 L 13.986328 15.527344 L 13.986328 15.558594 L 13.986328 15.587891 L 13.986328 15.619141 L 13.986328 15.648438 L 13.986328 15.679688 L 13.986328 15.710938 L 13.986328 15.740234 L 13.986328 15.771484 L 13.986328 15.802734 L 13.986328 15.832031 L 13.986328 15.863281 L 13.986328 15.894531 L 13.986328 15.923828 L 13.986328 15.955078 L 13.986328 15.986328 L 13.986328 16.015625 L 13.986328 16.046875 L 13.986328 16.076172 L 13.986328 16.107422 L 13.986328 16.138672 L 13.986328 16.169922 L 13.986328 16.199219 L 13.986328 16.230469 L 13.986328 16.259766 L 13.986328 16.291016 L 13.986328 16.322266 L 13.986328 16.351562 L 13.986328 16.382812 L 13.986328 16.412109 L 13.986328 16.443359 L 13.986328 16.474609 L 13.986328 16.501953 L 13.986328 16.53125 L 13.986328 16.5625 L 13.986328 16.59375 L 13.986328 16.623047 L 13.986328 16.654297 L 13.986328 16.685547 L 13.986328 16.716797 L 13.986328 16.746094 L 13.986328 16.777344 L 13.986328 16.808594 L 13.986328 16.837891 L 13.986328 16.867188 L 13.986328 16.898438 L 13.986328 16.929688 L 13.986328 16.960938 L 13.986328 16.990234 L 13.986328 17.021484 L 13.986328 17.052734 L 14.015625 17.052734 L 14.046875 17.052734 L 14.076172 17.052734 L 14.107422 17.052734 L 14.138672 17.052734 L 14.169922 17.052734 L 14.199219 17.052734 L 14.228516 17.052734 L 14.259766 17.052734 L 14.292969 17.052734 L 14.322266 17.052734 L 14.353516 17.052734 L 14.384766 17.052734 L 14.414062 17.052734 L 14.445312 17.052734 L 14.476562 17.052734 L 14.505859 17.052734 L 14.535156 17.052734 L 14.566406 17.052734 L 14.597656 17.052734 L 14.628906 17.052734 L 14.658203 17.052734 L 14.6875 17.052734 L 14.71875 17.052734 L 14.748047 17.052734 L 14.779297 17.052734 L 14.810547 17.052734 L 14.839844 17.052734 L 14.873047 17.052734 L 14.904297 17.052734 L 14.935547 17.052734 L 14.964844 17.052734 L 14.996094 17.052734 L 15.025391 17.052734 L 15.056641 17.052734 L 15.087891 17.052734 L 15.117188 17.052734 L 15.148438 17.052734 L 15.179688 17.052734 L 15.208984 17.052734 L 15.238281 17.052734 L 15.269531 17.052734 L 15.300781 17.052734 L 15.330078 17.052734 L 15.361328 17.052734 L 15.390625 17.052734 L 15.421875 17.052734 L 15.451172 17.052734 L 15.486328 17.052734 L 15.515625 17.052734 L 15.546875 17.052734 L 15.576172 17.052734 L 15.607422 17.052734 L 15.638672 17.052734 L 15.667969 17.052734 L 15.697266 17.052734 L 15.728516 17.052734 L 15.759766 17.052734 L 15.759766 17.021484 L 15.759766 16.992188 L 15.759766 16.962891 L 15.759766 16.931641 L 15.759766 16.902344 L 15.759766 16.875 L 15.759766 16.84375 L 15.759766 16.814453 L 15.759766 16.785156 L 15.759766 16.755859 L 15.759766 16.724609 L 15.759766 16.697266 L 15.759766 16.667969 L 15.759766 16.636719 L 15.759766 16.605469 L 15.759766 16.578125 L 15.759766 16.548828 L 15.728516 16.548828 L 15.697266 16.548828 L 15.667969 16.548828 L 15.638672 16.548828 L 15.607422 16.548828 L 15.576172 16.548828 L 15.546875 16.548828 L 15.515625 16.548828 L 15.486328 16.548828 L 15.451172 16.548828 L 15.421875 16.548828 L 15.390625 16.548828 L 15.361328 16.548828 L 15.330078 16.548828 L 15.300781 16.548828 L 15.269531 16.548828 L 15.238281 16.548828 L 15.208984 16.548828 L 15.179688 16.548828 L 15.148438 16.548828 L 15.117188 16.548828 L 15.087891 16.548828 L 15.056641 16.548828 L 15.025391 16.548828 L 14.996094 16.548828 L 14.964844 16.548828 L 14.935547 16.548828 L 14.904297 16.548828 L 14.873047 16.548828 L 14.839844 16.548828 L 14.810547 16.548828 L 14.779297 16.548828 L 14.748047 16.548828 L 14.71875 16.548828 L 14.6875 16.548828 L 14.658203 16.548828 L 14.628906 16.548828 L 14.597656 16.548828 L 14.566406 16.548828 L 14.566406 16.517578 L 14.566406 16.482422 L 14.566406 16.453125 L 14.566406 16.421875 L 14.566406 16.388672 L 14.566406 16.357422 L 14.566406 16.328125 L 14.566406 16.294922 L 14.566406 16.263672 L 14.566406 16.232422 L 14.566406 16.199219 L 14.566406 16.169922 L 14.597656 16.169922 L 14.628906 16.169922 L 14.658203 16.169922 L 14.6875 16.169922 L 14.71875 16.169922 L 14.748047 16.169922 L 14.779297 16.169922 L 14.810547 16.169922 L 14.837891 16.169922 L 14.867188 16.169922 L 14.898438 16.169922 L 14.929688 16.169922 L 14.958984 16.169922 L 14.990234 16.169922 L 15.019531 16.169922 L 15.050781 16.169922 L 15.080078 16.169922 L 15.111328 16.169922 L 15.142578 16.169922 L 15.171875 16.169922 L 15.203125 16.169922 L 15.232422 16.169922 L 15.263672 16.169922 L 15.294922 16.169922 L 15.324219 16.169922 L 15.355469 16.169922 L 15.382812 16.169922 L 15.412109 16.169922 L 15.443359 16.169922 L 15.472656 16.169922 L 15.503906 16.169922 L 15.533203 16.169922 L 15.564453 16.169922 L 15.595703 16.169922 L 15.625 16.169922 L 15.625 16.138672 L 15.625 16.111328 L 15.625 16.080078 L 15.625 16.050781 L 15.625 16.021484 L 15.625 15.992188 L 15.625 15.960938 L 15.625 15.929688 L 15.625 15.902344 L 15.625 15.871094 L 15.625 15.841797 L 15.625 15.814453 L 15.625 15.783203 L 15.625 15.753906 L 15.625 15.726562 L 15.625 15.695312 L 15.595703 15.695312 L 15.564453 15.695312 L 15.533203 15.695312 L 15.503906 15.695312 L 15.472656 15.695312 L 15.443359 15.695312 L 15.412109 15.695312 L 15.382812 15.695312 L 15.355469 15.695312 L 15.324219 15.695312 L 15.294922 15.695312 L 15.263672 15.695312 L 15.232422 15.695312 L 15.203125 15.695312 L 15.171875 15.695312 L 15.142578 15.695312 L 15.111328 15.695312 L 15.080078 15.695312 L 15.050781 15.695312 L 15.019531 15.695312 L 14.990234 15.695312 L 14.958984 15.695312 L 14.929688 15.695312 L 14.898438 15.695312 L 14.867188 15.695312 L 14.837891 15.695312 L 14.810547 15.695312 L 14.779297 15.695312 L 14.748047 15.695312 L 14.71875 15.695312 L 14.6875 15.695312 L 14.658203 15.695312 L 14.628906 15.695312 L 14.597656 15.695312 L 14.566406 15.695312 L 14.566406 15.664062 L 14.566406 15.634766 L 14.566406 15.603516 L 14.566406 15.572266 L 14.566406 15.542969 L 14.566406 15.511719 L 14.566406 15.484375 L 14.566406 15.453125 L 14.566406 15.423828 L 14.566406 15.392578 L 14.566406 15.361328 L 14.566406 15.332031 L 14.597656 15.332031 L 14.628906 15.332031 L 14.658203 15.332031 L 14.6875 15.332031 L 14.71875 15.332031 L 14.748047 15.332031 L 14.777344 15.332031 L 14.806641 15.332031 L 14.837891 15.332031 L 14.867188 15.332031 L 14.898438 15.332031 L 14.929688 15.332031 L 14.958984 15.332031 L 14.990234 15.332031 L 15.019531 15.332031 L 15.050781 15.332031 L 15.080078 15.332031 L 15.111328 15.332031 L 15.142578 15.332031 L 15.169922 15.332031 L 15.199219 15.332031 L 15.230469 15.332031 L 15.261719 15.332031 L 15.291016 15.332031 L 15.320312 15.332031 L 15.351562 15.332031 L 15.382812 15.332031 L 15.412109 15.332031 L 15.443359 15.332031 L 15.472656 15.332031 L 15.503906 15.332031 L 15.533203 15.332031 L 15.5625 15.332031 L 15.591797 15.332031 L 15.621094 15.332031 L 15.652344 15.332031 L 15.683594 15.332031 L 15.714844 15.332031 L 15.744141 15.332031 L 15.744141 15.300781 L 15.744141 15.273438 L 15.744141 15.242188 L 15.744141 15.212891 L 15.744141 15.181641 L 15.744141 15.154297 L 15.744141 15.123047 L 15.744141 15.09375 L 15.744141 15.066406 L 15.744141 15.035156 L 15.744141 15.005859 L 15.744141 14.976562 L 15.744141 14.947266 L 15.744141 14.916016 L 15.744141 14.884766 L 15.744141 14.857422 L 15.744141 14.828125 L 15.714844 14.828125 L 15.683594 14.828125 L 15.652344 14.828125 L 15.621094 14.828125 L 15.591797 14.828125 L 15.5625 14.828125 L 15.53125 14.828125 L 15.501953 14.828125 L 15.470703 14.828125 L 15.439453 14.828125 L 15.410156 14.828125 L 15.378906 14.828125 L 15.347656 14.828125 L 15.318359 14.828125 L 15.291016 14.828125 L 15.261719 14.828125 L 15.230469 14.828125 L 15.199219 14.828125 L 15.169922 14.828125 L 15.138672 14.828125 L 15.107422 14.828125 L 15.078125 14.828125 L 15.046875 14.828125 L 15.017578 14.828125 L 14.986328 14.828125 L 14.955078 14.828125 L 14.925781 14.828125 L 14.894531 14.828125 L 14.865234 14.828125 L 14.835938 14.828125 L 14.804688 14.828125 L 14.773438 14.828125 L 14.742188 14.828125 L 14.712891 14.828125 L 14.681641 14.828125 L 14.652344 14.828125 L 14.621094 14.828125 L 14.591797 14.828125 L 14.560547 14.828125 L 14.529297 14.828125 L 14.5 14.828125 L 14.470703 14.828125 L 14.439453 14.828125 L 14.410156 14.828125 L 14.380859 14.828125 L 14.351562 14.828125 L 14.320312 14.828125 L 14.289062 14.828125 L 14.259766 14.828125 L 14.228516 14.828125 L 14.199219 14.828125 L 14.169922 14.828125 L 14.138672 14.828125 L 14.107422 14.828125 L 14.076172 14.828125 L 14.046875 14.828125 L 14.015625 14.828125 L 13.986328 14.828125 z M 9.7324219 15.511719 L 9.7441406 15.539062 L 9.7539062 15.568359 L 9.765625 15.599609 L 9.7773438 15.626953 L 9.7871094 15.654297 L 9.7988281 15.683594 L 9.8105469 15.714844 L 9.8203125 15.742188 L 9.8320312 15.769531 L 9.84375 15.798828 L 9.8535156 15.826172 L 9.8652344 15.855469 L 9.875 15.884766 L 9.8867188 15.912109 L 9.8984375 15.939453 L 9.9082031 15.96875 L 9.9199219 15.998047 L 9.9316406 16.027344 L 9.9414062 16.054688 L 9.953125 16.082031 L 9.9648438 16.113281 L 9.9746094 16.142578 L 9.9863281 16.169922 L 9.9570312 16.162109 L 9.9277344 16.162109 L 9.8984375 16.162109 L 9.8671875 16.162109 L 9.8378906 16.162109 L 9.8066406 16.162109 L 9.7753906 16.162109 L 9.7460938 16.162109 L 9.71875 16.162109 L 9.6875 16.162109 L 9.65625 16.162109 L 9.6269531 16.162109 L 9.5976562 16.162109 L 9.5664062 16.162109 L 9.5351562 16.162109 L 9.5058594 16.162109 L 9.4746094 16.162109 L 9.4863281 16.134766 L 9.4960938 16.105469 L 9.5078125 16.074219 L 9.5195312 16.046875 L 9.5292969 16.019531 L 9.5410156 15.990234 L 9.5527344 15.960938 L 9.5644531 15.931641 L 9.5742188 15.904297 L 9.5859375 15.876953 L 9.5996094 15.853516 L 9.609375 15.822266 L 9.6210938 15.794922 L 9.6328125 15.765625 L 9.6425781 15.738281 L 9.6542969 15.710938 L 9.6660156 15.679688 L 9.6777344 15.650391 L 9.6875 15.623047 L 9.6992188 15.599609 L 9.7128906 15.568359 L 9.7207031 15.539062 L 9.7324219 15.511719 z M 9.2402344 18.261719 C 9.1702344 18.261719 9.1488906 18.355766 9.2128906 18.384766 L 11.910156 19.613281 C 11.927156 19.621281 11.945891 19.620281 11.962891 19.613281 L 14.775391 18.386719 C 14.839391 18.358719 14.818047 18.261719 14.748047 18.261719 L 9.2402344 18.261719 z"/></svg>